{
	"accessors" : 
	[
		{
			"bufferView" : 2,
			"byteOffset" : 0,
			"componentType" : 5126,
			"count" : 19992,
			"max" : 
			[
				1,
				1,
				1,
				1
			],
			"min" : 
			[
				0.1939721703529358,
				0.08919350802898407,
				0,
				1
			],
			"name" : "accessor_color_m0-PolyPaper21_-942966",
			"type" : "VEC4"
		},
		{
			"bufferView" : 2,
			"byteOffset" : 319872,
			"componentType" : 5126,
			"count" : 14622,
			"max" : 
			[
				1,
				1,
				1,
				1
			],
			"min" : 
			[
				0.1939721703529358,
				0.08919350802898407,
				0.01188133470714092,
				1
			],
			"name" : "accessor_color_m3-PolyPaper21_-942984",
			"type" : "VEC4"
		},
		{
			"bufferView" : 0,
			"byteOffset" : 0,
			"componentType" : 5123,
			"count" : 28584,
			"max" : 
			[
				19991
			],
			"min" : 
			[
				0
			],
			"name" : "accessor_indices_0_m0-PolyPaper21_-942966",
			"type" : "SCALAR"
		},
		{
			"bufferView" : 0,
			"byteOffset" : 57168,
			"componentType" : 5123,
			"count" : 20832,
			"max" : 
			[
				14621
			],
			"min" : 
			[
				0
			],
			"name" : "accessor_indices_0_m3-PolyPaper21_-942984",
			"type" : "SCALAR"
		},
		{
			"bufferView" : 1,
			"byteOffset" : 239904,
			"componentType" : 5126,
			"count" : 19992,
			"max" : 
			[
				0.999063,
				1,
				0.9997059
			],
			"min" : 
			[
				-0.9990629,
				-1,
				-0.999605
			],
			"name" : "accessor_normal_m0-PolyPaper21_-942966",
			"type" : "VEC3"
		},
		{
			"bufferView" : 1,
			"byteOffset" : 655272,
			"componentType" : 5126,
			"count" : 14622,
			"max" : 
			[
				1,
				1,
				1
			],
			"min" : 
			[
				-1,
				-1,
				-1
			],
			"name" : "accessor_normal_m3-PolyPaper21_-942984",
			"type" : "VEC3"
		},
		{
			"bufferView" : 1,
			"byteOffset" : 0,
			"componentType" : 5126,
			"count" : 19992,
			"max" : 
			[
				0.5555344,
				2.247233,
				1.241485
			],
			"min" : 
			[
				-2.7237,
				-2.484693,
				-1.876699
			],
			"name" : "accessor_position_m0-PolyPaper21_-942966",
			"type" : "VEC3"
		},
		{
			"bufferView" : 1,
			"byteOffset" : 479808,
			"componentType" : 5126,
			"count" : 14622,
			"max" : 
			[
				0.4456455,
				2.282459,
				1.233429
			],
			"min" : 
			[
				-2.685265,
				-3.555959,
				-1.876699
			],
			"name" : "accessor_position_m3-PolyPaper21_-942984",
			"type" : "VEC3"
		}
	],
	"asset" : 
	{
		"copyright" : "Unknown",
		"generator" : "glTF 1-to-2 Upgrader for Google Blocks",
		"version" : "2.0"
	},
	"bufferViews" : 
	[
		{
			"buffer" : 0,
			"byteLength" : 98832,
			"byteOffset" : 0,
			"name" : "ushortBufferView",
			"target" : 34963
		},
		{
			"buffer" : 0,
			"byteLength" : 830736,
			"byteOffset" : 98832,
			"byteStride" : 12,
			"name" : "vec3BufferView",
			"target" : 34962
		},
		{
			"buffer" : 0,
			"byteLength" : 553824,
			"byteOffset" : 929568,
			"byteStride" : 16,
			"name" : "vec4BufferView",
			"target" : 34962
		}
	],
	"buffers" : 
	[
		{
			"byteLength" : 1483392,
			"name" : "model",
			"uri" : "model.bin"
		}
	],
	"materials" : 
	[
		{
			"alphaMode" : "OPAQUE",
			"doubleSided" : false,
			"name" : "BlocksPaper",
			"pbrMetallicRoughness" : 
			{
				"baseColorFactor" : 
				[
					1,
					1,
					1,
					1
				],
				"metallicFactor" : 0,
				"roughnessFactor" : 0.6
			}
		},
		{
			"alphaMode" : "BLEND",
			"doubleSided" : false,
			"name" : "BlocksGlass",
			"pbrMetallicRoughness" : 
			{
				"baseColorFactor" : 
				[
					0.2,
					0.2,
					1,
					0.3
				],
				"metallicFactor" : 1,
				"roughnessFactor" : 0.4
			}
		},
		{
			"alphaMode" : "OPAQUE",
			"doubleSided" : true,
			"name" : "BlocksGem",
			"pbrMetallicRoughness" : 
			{
				"baseColorFactor" : 
				[
					1,
					0.4,
					1,
					1
				],
				"metallicFactor" : 0,
				"roughnessFactor" : 0.1
			}
		}
	],
	"meshes" : 
	[
		{
			"name" : "mesh_m0-PolyPaper21_-942966",
			"primitives" : 
			[
				{
					"attributes" : 
					{
						"COLOR_0" : 0,
						"NORMAL" : 4,
						"POSITION" : 6
					},
					"indices" : 2,
					"material" : 0,
					"mode" : 4
				}
			]
		},
		{
			"name" : "mesh_m3-PolyPaper21_-942984",
			"primitives" : 
			[
				{
					"attributes" : 
					{
						"COLOR_0" : 1,
						"NORMAL" : 5,
						"POSITION" : 7
					},
					"indices" : 3,
					"material" : 0,
					"mode" : 4
				}
			]
		}
	],
	"nodes" : 
	[
		{
			"matrix" : 
			[
				1,
				0,
				0,
				0,
				0,
				1,
				0,
				0,
				0,
				0,
				1,
				0,
				0,
				0,
				0,
				1
			],
			"mesh" : 0,
			"name" : "node_MeshObject-2061344768-PolyPaper21"
		},
		{
			"matrix" : 
			[
				1,
				0,
				0,
				0,
				0,
				1,
				0,
				0,
				0,
				0,
				1,
				0,
				0,
				0,
				0,
				1
			],
			"mesh" : 1,
			"name" : "node_MeshObject-345107456-PolyPaper21"
		}
	],
	"scene" : 0,
	"scenes" : 
	[
		{
			"extras" : {},
			"name" : "defaultScene",
			"nodes" : 
			[
				0,
				1
			]
		}
	]
}